<mxfile host="65bd71144e">
    <diagram id="LwE20mpUNEblGo_ZHiDh" name="第 1 页">
        <mxGraphModel dx="1382" dy="1368" grid="0" gridSize="10" guides="1" tooltips="1" connect="1" arrows="1" fold="1" page="0" pageScale="1" pageWidth="1169" pageHeight="827" background="none" math="0" shadow="0">
            <root>
                <mxCell id="0"/>
                <mxCell id="1" parent="0"/>
                <mxCell id="42" value="&lt;font style=&quot;font-size: 18px;&quot;&gt;&lt;b&gt;Reactor UML&lt;/b&gt;&lt;/font&gt;" style="fontStyle=0;verticalAlign=top;align=center;spacingTop=-2;fillColor=none;rounded=0;whiteSpace=wrap;html=1;strokeColor=#CC0000;strokeWidth=2;dashed=1;container=1;collapsible=0;expand=0;recursiveResize=0;" parent="1" vertex="1">
                    <mxGeometry x="-479" y="396" width="1046" height="576" as="geometry"/>
                </mxCell>
                <mxCell id="16" value="AbstractReactor" style="swimlane;fontStyle=3;align=center;verticalAlign=top;childLayout=stackLayout;horizontal=1;startSize=26;horizontalStack=0;resizeParent=1;resizeParentMax=0;resizeLast=0;collapsible=1;marginBottom=0;" parent="42" vertex="1">
                    <mxGeometry x="423" y="270" width="200" height="187" as="geometry">
                        <mxRectangle x="243" y="65" width="128" height="26" as="alternateBounds"/>
                    </mxGeometry>
                </mxCell>
                <mxCell id="17" value="# uuid: String&#10;# status: ReactorStatus&#10;# type: ReactorType" style="text;strokeColor=none;fillColor=none;align=left;verticalAlign=top;spacingLeft=4;spacingRight=4;overflow=hidden;rotatable=0;points=[[0,0.5],[1,0.5]];portConstraint=eastwest;" parent="16" vertex="1">
                    <mxGeometry y="26" width="200" height="53" as="geometry"/>
                </mxCell>
                <mxCell id="18" value="" style="line;strokeWidth=1;fillColor=none;align=left;verticalAlign=middle;spacingTop=-1;spacingLeft=3;spacingRight=3;rotatable=0;labelPosition=right;points=[];portConstraint=eastwest;strokeColor=inherit;" parent="16" vertex="1">
                    <mxGeometry y="79" width="200" height="8" as="geometry"/>
                </mxCell>
                <mxCell id="19" value="+ uuid(): String &#10;+ status(): ReactorStatus&#10;+ type(): ReactorType&#10;+ start(): Mono&lt;Reactor&gt;&#10;+ startAwait(): Reactor&#10;+ shutdown(): void" style="text;strokeColor=none;fillColor=none;align=left;verticalAlign=top;spacingLeft=4;spacingRight=4;overflow=hidden;rotatable=0;points=[[0,0.5],[1,0.5]];portConstraint=eastwest;fontStyle=2" parent="16" vertex="1">
                    <mxGeometry y="87" width="200" height="100" as="geometry"/>
                </mxCell>
                <mxCell id="26" value="CyberFluxMqttReactor" style="swimlane;fontStyle=1;align=center;verticalAlign=top;childLayout=stackLayout;horizontal=1;startSize=26;horizontalStack=0;resizeParent=1;resizeParentMax=0;resizeLast=0;collapsible=1;marginBottom=0;" parent="42" vertex="1">
                    <mxGeometry x="770" y="45" width="200" height="117" as="geometry"/>
                </mxCell>
                <mxCell id="27" value="- transport: MqttTransport&#10;- config: MqttConfiguration" style="text;strokeColor=none;fillColor=none;align=left;verticalAlign=top;spacingLeft=4;spacingRight=4;overflow=hidden;rotatable=0;points=[[0,0.5],[1,0.5]];portConstraint=eastwest;" parent="26" vertex="1">
                    <mxGeometry y="26" width="200" height="57" as="geometry"/>
                </mxCell>
                <mxCell id="28" value="" style="line;strokeWidth=1;fillColor=none;align=left;verticalAlign=middle;spacingTop=-1;spacingLeft=3;spacingRight=3;rotatable=0;labelPosition=right;points=[];portConstraint=eastwest;strokeColor=inherit;" parent="26" vertex="1">
                    <mxGeometry y="83" width="200" height="8" as="geometry"/>
                </mxCell>
                <mxCell id="29" value="+ method(type): type" style="text;strokeColor=none;fillColor=none;align=left;verticalAlign=top;spacingLeft=4;spacingRight=4;overflow=hidden;rotatable=0;points=[[0,0.5],[1,0.5]];portConstraint=eastwest;" parent="26" vertex="1">
                    <mxGeometry y="91" width="200" height="26" as="geometry"/>
                </mxCell>
                <mxCell id="5SEu0YeIMn6mumEOarB9-72" value="Extends" style="endArrow=block;endSize=16;endFill=0;html=1;entryX=1;entryY=0.5;entryDx=0;entryDy=0;exitX=0.491;exitY=1.2;exitDx=0;exitDy=0;exitPerimeter=0;" parent="42" source="29" target="17" edge="1">
                    <mxGeometry width="160" relative="1" as="geometry">
                        <mxPoint x="184" y="-126" as="sourcePoint"/>
                        <mxPoint x="344" y="-126" as="targetPoint"/>
                        <Array as="points">
                            <mxPoint x="868" y="327"/>
                        </Array>
                    </mxGeometry>
                </mxCell>
                <mxCell id="30" value="CyberFluxMqttReactor" style="swimlane;fontStyle=1;align=center;verticalAlign=top;childLayout=stackLayout;horizontal=1;startSize=26;horizontalStack=0;resizeParent=1;resizeParentMax=0;resizeLast=0;collapsible=1;marginBottom=0;" parent="42" vertex="1">
                    <mxGeometry x="76" y="45" width="200" height="86" as="geometry"/>
                </mxCell>
                <mxCell id="31" value="+ field: type" style="text;strokeColor=none;fillColor=none;align=left;verticalAlign=top;spacingLeft=4;spacingRight=4;overflow=hidden;rotatable=0;points=[[0,0.5],[1,0.5]];portConstraint=eastwest;" parent="30" vertex="1">
                    <mxGeometry y="26" width="200" height="26" as="geometry"/>
                </mxCell>
                <mxCell id="32" value="" style="line;strokeWidth=1;fillColor=none;align=left;verticalAlign=middle;spacingTop=-1;spacingLeft=3;spacingRight=3;rotatable=0;labelPosition=right;points=[];portConstraint=eastwest;strokeColor=inherit;" parent="30" vertex="1">
                    <mxGeometry y="52" width="200" height="8" as="geometry"/>
                </mxCell>
                <mxCell id="33" value="+ method(type): type" style="text;strokeColor=none;fillColor=none;align=left;verticalAlign=top;spacingLeft=4;spacingRight=4;overflow=hidden;rotatable=0;points=[[0,0.5],[1,0.5]];portConstraint=eastwest;" parent="30" vertex="1">
                    <mxGeometry y="60" width="200" height="26" as="geometry"/>
                </mxCell>
                <mxCell id="5SEu0YeIMn6mumEOarB9-71" value="Extends" style="endArrow=block;endSize=16;endFill=0;html=1;entryX=0;entryY=0.5;entryDx=0;entryDy=0;exitX=0.497;exitY=1.346;exitDx=0;exitDy=0;exitPerimeter=0;" parent="42" source="33" target="17" edge="1">
                    <mxGeometry width="160" relative="1" as="geometry">
                        <mxPoint x="-110" y="-224" as="sourcePoint"/>
                        <mxPoint x="50" y="-224" as="targetPoint"/>
                        <Array as="points">
                            <mxPoint x="180" y="323"/>
                        </Array>
                    </mxGeometry>
                </mxCell>
                <mxCell id="11" value="&lt;p style=&quot;margin:0px;margin-top:4px;text-align:center;&quot;&gt;&lt;i&gt;&amp;lt;&amp;lt;Interface&amp;gt;&amp;gt;&lt;/i&gt;&lt;br&gt;&lt;b&gt;Reactor&lt;/b&gt;&lt;/p&gt;&lt;hr size=&quot;1&quot;&gt;&lt;p style=&quot;margin:0px;margin-left:4px;&quot;&gt;+ uuid(): String&amp;nbsp;&lt;br&gt;+ status(): ReactorStatus&lt;/p&gt;&lt;p style=&quot;margin:0px;margin-left:4px;&quot;&gt;+ type(): ReactorType&lt;/p&gt;&lt;p style=&quot;margin:0px;margin-left:4px;&quot;&gt;+ start(): Mono&amp;lt;Reactor&amp;gt;&lt;/p&gt;&lt;p style=&quot;margin:0px;margin-left:4px;&quot;&gt;+ startAwait(): Reactor&lt;/p&gt;&lt;p style=&quot;margin:0px;margin-left:4px;&quot;&gt;+ shutdown(): void&lt;/p&gt;" style="verticalAlign=top;align=left;overflow=fill;fontSize=12;fontFamily=Helvetica;html=1;" parent="42" vertex="1">
                    <mxGeometry x="423" y="45" width="200" height="143" as="geometry"/>
                </mxCell>
                <mxCell id="21" value="" style="endArrow=block;dashed=1;endFill=0;endSize=12;html=1;exitX=0.5;exitY=0;exitDx=0;exitDy=0;entryX=0.5;entryY=1;entryDx=0;entryDy=0;" parent="42" source="16" target="11" edge="1">
                    <mxGeometry width="160" relative="1" as="geometry">
                        <mxPoint x="698" y="-454" as="sourcePoint"/>
                        <mxPoint x="858" y="-454" as="targetPoint"/>
                    </mxGeometry>
                </mxCell>
                <mxCell id="45" value="&lt;b&gt;Engine UML&lt;/b&gt;" style="fontStyle=0;verticalAlign=top;align=center;spacingTop=-2;fillColor=none;rounded=0;whiteSpace=wrap;html=1;strokeColor=#00882B;strokeWidth=2;dashed=1;container=1;collapsible=0;expand=0;recursiveResize=0;fontSize=18;" parent="1" vertex="1">
                    <mxGeometry x="-758" y="-722" width="1510" height="801" as="geometry"/>
                </mxCell>
                <mxCell id="41" value="&lt;p style=&quot;margin:0px;margin-top:4px;text-align:center;&quot;&gt;&lt;i&gt;&amp;lt;&amp;lt;Interface&amp;gt;&amp;gt;&lt;/i&gt;&lt;br&gt;&lt;b&gt;CyberFluxMetaEngine&lt;/b&gt;&lt;/p&gt;&lt;hr size=&quot;1&quot;&gt;&lt;p style=&quot;margin:0px;margin-left:4px;&quot;&gt;+ startReactor(): void&lt;br&gt;+ startReactor(ReactorType): void&lt;br&gt;&lt;/p&gt;&lt;p style=&quot;margin:0px;margin-left:4px;&quot;&gt;+ startReactor(Iterable&amp;lt;String&amp;gt;): void&lt;br&gt;&lt;/p&gt;&lt;p style=&quot;margin:0px;margin-left:4px;&quot;&gt;+ startReactor(String): void&lt;br&gt;&lt;/p&gt;&lt;p style=&quot;margin:0px;margin-left:4px;&quot;&gt;+ startReactor(CyberFluxReactor): void&lt;br&gt;&lt;/p&gt;&lt;p style=&quot;margin: 0px 0px 0px 4px;&quot;&gt;+ shutdownReactor(): void&lt;br&gt;+ shutdownReactor(ReactorType): void&lt;br&gt;&lt;/p&gt;&lt;p style=&quot;margin: 0px 0px 0px 4px;&quot;&gt;+ shutdownReactor(Iterable&amp;lt;String&amp;gt;): void&lt;br&gt;&lt;/p&gt;&lt;p style=&quot;margin: 0px 0px 0px 4px;&quot;&gt;+ shutdownReactor(String): void&lt;br&gt;&lt;/p&gt;&lt;p style=&quot;margin: 0px 0px 0px 4px;&quot;&gt;+ shutdownReactor(CyberFluxReactor): void&lt;/p&gt;&lt;p style=&quot;margin: 0px 0px 0px 4px;&quot;&gt;+ appendReactor(CyberFluxReactor): void&lt;br&gt;+ appendReactor(Iterable&amp;lt;CyberFluxReactor&amp;gt;): void&lt;br&gt;&lt;/p&gt;&lt;p style=&quot;margin: 0px 0px 0px 4px;&quot;&gt;+ removeReactor(): void&lt;br&gt;+ removeReactor(ReactorType): void&lt;br&gt;&lt;/p&gt;&lt;p style=&quot;margin: 0px 0px 0px 4px;&quot;&gt;+ removeReactor(Iterable&amp;lt;String&amp;gt;): void&lt;br&gt;&lt;/p&gt;&lt;p style=&quot;margin: 0px 0px 0px 4px;&quot;&gt;+ removeReactor(String): void&lt;/p&gt;&lt;p style=&quot;margin: 0px 0px 0px 4px;&quot;&gt;+ findReactor(): Flux&amp;lt;CyberFluxReactor&amp;gt;&lt;br&gt;&lt;/p&gt;&lt;p style=&quot;margin: 0px 0px 0px 4px;&quot;&gt;+ findReactor(ReactorType): Flux&amp;lt;CyberFluxReactor&amp;gt;&lt;br&gt;&lt;/p&gt;&lt;p style=&quot;margin: 0px 0px 0px 4px;&quot;&gt;+ findReactor(Iterable&amp;lt;String&amp;gt;): Flux&amp;lt;CyberFluxReactor&amp;gt;&lt;br&gt;&lt;/p&gt;&lt;p style=&quot;margin: 0px 0px 0px 4px;&quot;&gt;+ findReactor(String): Mono&amp;lt;CyberFluxReactor&amp;gt;&lt;br&gt;&lt;/p&gt;" style="verticalAlign=top;align=left;overflow=fill;fontSize=12;fontFamily=Helvetica;html=1;" parent="45" vertex="1">
                    <mxGeometry x="520" y="213" width="320" height="338" as="geometry"/>
                </mxCell>
                <mxCell id="5SEu0YeIMn6mumEOarB9-43" value="&lt;p style=&quot;margin:0px;margin-top:4px;text-align:center;&quot;&gt;&lt;i&gt;&amp;lt;&amp;lt;Interface&amp;gt;&amp;gt;&lt;/i&gt;&lt;br&gt;&lt;b&gt;CyberFluxCluserNode&lt;/b&gt;&lt;/p&gt;&lt;hr size=&quot;1&quot;&gt;&lt;p style=&quot;margin:0px;margin-left:4px;&quot;&gt;+ nodeName(): String&amp;nbsp;&lt;br&gt;+ nodeMember(String): CyberFluxClusterNode&lt;/p&gt;&amp;nbsp;+ nodeMembers():&amp;nbsp;&amp;nbsp;Set&amp;lt;CyberFluxClusterNode&amp;gt;&lt;br&gt;" style="verticalAlign=top;align=left;overflow=fill;fontSize=12;fontFamily=Helvetica;html=1;" parent="45" vertex="1">
                    <mxGeometry x="79" y="284" width="320" height="103" as="geometry"/>
                </mxCell>
                <mxCell id="37" value="CyberFluxHuaxuEngine" style="swimlane;fontStyle=1;align=center;verticalAlign=top;childLayout=stackLayout;horizontal=1;startSize=26;horizontalStack=0;resizeParent=1;resizeParentMax=0;resizeLast=0;collapsible=1;marginBottom=0;" parent="45" vertex="1">
                    <mxGeometry x="916" y="273" width="240" height="148" as="geometry"/>
                </mxCell>
                <mxCell id="38" value="- beanFactory: CyberFluxBeanFactory" style="text;strokeColor=none;fillColor=none;align=left;verticalAlign=top;spacingLeft=4;spacingRight=4;overflow=hidden;rotatable=0;points=[[0,0.5],[1,0.5]];portConstraint=eastwest;" parent="37" vertex="1">
                    <mxGeometry y="26" width="240" height="30" as="geometry"/>
                </mxCell>
                <mxCell id="39" value="" style="line;strokeWidth=1;fillColor=none;align=left;verticalAlign=middle;spacingTop=-1;spacingLeft=3;spacingRight=3;rotatable=0;labelPosition=right;points=[];portConstraint=eastwest;strokeColor=inherit;" parent="37" vertex="1">
                    <mxGeometry y="56" width="240" height="8" as="geometry"/>
                </mxCell>
                <mxCell id="40" value="+ CyberFluxHuaxuEngine()&#10;+ CyberFluxHuaxuEngine(Class&lt;?&gt;)&#10;- loadReactor(): Flux&lt;CyberFluxReactor&gt;&#10;+ run():  CyberFluxHuaxuEngine&#10;+ run(Class&lt;?&gt;) CyberFluxHuaxuEngine" style="text;strokeColor=none;fillColor=none;align=left;verticalAlign=top;spacingLeft=4;spacingRight=4;overflow=hidden;rotatable=0;points=[[0,0.5],[1,0.5]];portConstraint=eastwest;" parent="37" vertex="1">
                    <mxGeometry y="64" width="240" height="84" as="geometry"/>
                </mxCell>
                <mxCell id="5SEu0YeIMn6mumEOarB9-44" value="&lt;p style=&quot;margin:0px;margin-top:4px;text-align:center;&quot;&gt;&lt;i&gt;&amp;lt;&amp;lt;Interface&amp;gt;&amp;gt;&lt;/i&gt;&lt;br&gt;&lt;b&gt;CyberFluxNodeEngine&lt;/b&gt;&lt;/p&gt;&lt;hr size=&quot;1&quot;&gt;&lt;p style=&quot;margin:0px;margin-left:4px;&quot;&gt;&lt;br&gt;&lt;/p&gt;" style="verticalAlign=top;align=left;overflow=fill;fontSize=12;fontFamily=Helvetica;html=1;" parent="45" vertex="1">
                    <mxGeometry x="191" y="587" width="200" height="136" as="geometry"/>
                </mxCell>
                <mxCell id="5SEu0YeIMn6mumEOarB9-59" value="Extends" style="endArrow=block;endSize=16;endFill=0;html=1;exitX=0.25;exitY=0;exitDx=0;exitDy=0;entryX=0.5;entryY=1;entryDx=0;entryDy=0;" parent="45" source="5SEu0YeIMn6mumEOarB9-44" target="5SEu0YeIMn6mumEOarB9-43" edge="1">
                    <mxGeometry width="160" relative="1" as="geometry">
                        <mxPoint x="-1104" y="726" as="sourcePoint"/>
                        <mxPoint x="-964" y="686" as="targetPoint"/>
                    </mxGeometry>
                </mxCell>
                <mxCell id="5SEu0YeIMn6mumEOarB9-50" value="CyberFluxSpringEngine" style="swimlane;fontStyle=1;align=center;verticalAlign=top;childLayout=stackLayout;horizontal=1;startSize=26;horizontalStack=0;resizeParent=1;resizeParentMax=0;resizeLast=0;collapsible=1;marginBottom=0;" parent="45" vertex="1">
                    <mxGeometry x="1203" y="273" width="280" height="115" as="geometry"/>
                </mxCell>
                <mxCell id="5SEu0YeIMn6mumEOarB9-51" value="-" style="text;strokeColor=none;fillColor=none;align=left;verticalAlign=top;spacingLeft=4;spacingRight=4;overflow=hidden;rotatable=0;points=[[0,0.5],[1,0.5]];portConstraint=eastwest;" parent="5SEu0YeIMn6mumEOarB9-50" vertex="1">
                    <mxGeometry y="26" width="280" height="27" as="geometry"/>
                </mxCell>
                <mxCell id="5SEu0YeIMn6mumEOarB9-52" value="" style="line;strokeWidth=1;fillColor=none;align=left;verticalAlign=middle;spacingTop=-1;spacingLeft=3;spacingRight=3;rotatable=0;labelPosition=right;points=[];portConstraint=eastwest;strokeColor=inherit;" parent="5SEu0YeIMn6mumEOarB9-50" vertex="1">
                    <mxGeometry y="53" width="280" height="8" as="geometry"/>
                </mxCell>
                <mxCell id="5SEu0YeIMn6mumEOarB9-53" value="+ CyberFluxSpringEngine(ApplicationContext)&#10;+ run(ApplicationContext) CyberFluxSpringEngine" style="text;strokeColor=none;fillColor=none;align=left;verticalAlign=top;spacingLeft=4;spacingRight=4;overflow=hidden;rotatable=0;points=[[0,0.5],[1,0.5]];portConstraint=eastwest;" parent="5SEu0YeIMn6mumEOarB9-50" vertex="1">
                    <mxGeometry y="61" width="280" height="54" as="geometry"/>
                </mxCell>
                <mxCell id="5SEu0YeIMn6mumEOarB9-60" value="CyberFluxAbstractClusterNode" style="swimlane;fontStyle=3;align=center;verticalAlign=top;childLayout=stackLayout;horizontal=1;startSize=26;horizontalStack=0;resizeParent=1;resizeParentMax=0;resizeLast=0;collapsible=1;marginBottom=0;" parent="45" vertex="1">
                    <mxGeometry x="49" y="52" width="380" height="164" as="geometry"/>
                </mxCell>
                <mxCell id="5SEu0YeIMn6mumEOarB9-61" value="# nodeMembers: Map&lt;String, CyberFluxClusterNode&gt;&#10;# supportTypes: EnumSet&lt;ReactorType&gt;&#10;# nodeName: String" style="text;strokeColor=none;fillColor=none;align=left;verticalAlign=top;spacingLeft=4;spacingRight=4;overflow=hidden;rotatable=0;points=[[0,0.5],[1,0.5]];portConstraint=eastwest;" parent="5SEu0YeIMn6mumEOarB9-60" vertex="1">
                    <mxGeometry y="26" width="380" height="57" as="geometry"/>
                </mxCell>
                <mxCell id="5SEu0YeIMn6mumEOarB9-62" value="" style="line;strokeWidth=1;fillColor=none;align=left;verticalAlign=middle;spacingTop=-1;spacingLeft=3;spacingRight=3;rotatable=0;labelPosition=right;points=[];portConstraint=eastwest;strokeColor=inherit;" parent="5SEu0YeIMn6mumEOarB9-60" vertex="1">
                    <mxGeometry y="83" width="380" height="8" as="geometry"/>
                </mxCell>
                <mxCell id="5SEu0YeIMn6mumEOarB9-63" value="+ CyberFluxAbstractClusterNode(String)&#10;+ CyberFluxAbstractClusterNode(String, ReactorType...)&#10;+ CyberFluxAbstractClusterNode(String, Collection&lt;ReactorType&gt;)&#10;+ CyberFluxAbstractClusterNode(String, EnumSet&lt;ReactorType&gt;)" style="text;strokeColor=none;fillColor=none;align=left;verticalAlign=top;spacingLeft=4;spacingRight=4;overflow=hidden;rotatable=0;points=[[0,0.5],[1,0.5]];portConstraint=eastwest;" parent="5SEu0YeIMn6mumEOarB9-60" vertex="1">
                    <mxGeometry y="91" width="380" height="73" as="geometry"/>
                </mxCell>
                <mxCell id="5SEu0YeIMn6mumEOarB9-64" value="" style="endArrow=block;dashed=1;endFill=0;endSize=12;html=1;entryX=0.5;entryY=0;entryDx=0;entryDy=0;exitX=0.496;exitY=1;exitDx=0;exitDy=0;exitPerimeter=0;" parent="45" source="5SEu0YeIMn6mumEOarB9-63" target="5SEu0YeIMn6mumEOarB9-43" edge="1">
                    <mxGeometry width="160" relative="1" as="geometry">
                        <mxPoint x="-954" y="406" as="sourcePoint"/>
                        <mxPoint x="-914" y="1016" as="targetPoint"/>
                    </mxGeometry>
                </mxCell>
                <mxCell id="46" value="CyberFluxTemplateEngine" style="swimlane;fontStyle=1;align=center;verticalAlign=top;childLayout=stackLayout;horizontal=1;startSize=26;horizontalStack=0;resizeParent=1;resizeParentMax=0;resizeLast=0;collapsible=1;marginBottom=0;" parent="45" vertex="1">
                    <mxGeometry x="550" y="52" width="260" height="87" as="geometry"/>
                </mxCell>
                <mxCell id="47" value="# reactorGroup: CyberFluxReactorGroup" style="text;strokeColor=none;fillColor=none;align=left;verticalAlign=top;spacingLeft=4;spacingRight=4;overflow=hidden;rotatable=0;points=[[0,0.5],[1,0.5]];portConstraint=eastwest;" parent="46" vertex="1">
                    <mxGeometry y="26" width="260" height="27" as="geometry"/>
                </mxCell>
                <mxCell id="48" value="" style="line;strokeWidth=1;fillColor=none;align=left;verticalAlign=middle;spacingTop=-1;spacingLeft=3;spacingRight=3;rotatable=0;labelPosition=right;points=[];portConstraint=eastwest;strokeColor=inherit;" parent="46" vertex="1">
                    <mxGeometry y="53" width="260" height="8" as="geometry"/>
                </mxCell>
                <mxCell id="49" value="+ method(type): type" style="text;strokeColor=none;fillColor=none;align=left;verticalAlign=top;spacingLeft=4;spacingRight=4;overflow=hidden;rotatable=0;points=[[0,0.5],[1,0.5]];portConstraint=eastwest;" parent="46" vertex="1">
                    <mxGeometry y="61" width="260" height="26" as="geometry"/>
                </mxCell>
                <mxCell id="52" value="Extends" style="endArrow=block;endSize=16;endFill=0;html=1;exitX=0.75;exitY=0;exitDx=0;exitDy=0;entryX=0;entryY=0.75;entryDx=0;entryDy=0;" parent="45" source="5SEu0YeIMn6mumEOarB9-44" target="41" edge="1">
                    <mxGeometry width="160" relative="1" as="geometry">
                        <mxPoint x="971.4699999999996" y="764.9999999999998" as="sourcePoint"/>
                        <mxPoint x="510" y="402" as="targetPoint"/>
                        <Array as="points">
                            <mxPoint x="341" y="467"/>
                        </Array>
                    </mxGeometry>
                </mxCell>
                <mxCell id="54" value="Extends" style="endArrow=block;endSize=16;endFill=0;html=1;exitX=0;exitY=0.5;exitDx=0;exitDy=0;entryX=1;entryY=0.5;entryDx=0;entryDy=0;" parent="45" source="47" target="5SEu0YeIMn6mumEOarB9-61" edge="1">
                    <mxGeometry width="160" relative="1" as="geometry">
                        <mxPoint x="885" y="178.00000000000023" as="sourcePoint"/>
                        <mxPoint x="970" y="45.00000000000023" as="targetPoint"/>
                    </mxGeometry>
                </mxCell>
                <mxCell id="56" value="" style="endArrow=block;dashed=1;endFill=0;endSize=12;html=1;entryX=0.5;entryY=0;entryDx=0;entryDy=0;exitX=0.497;exitY=0.999;exitDx=0;exitDy=0;exitPerimeter=0;" parent="45" source="49" target="41" edge="1">
                    <mxGeometry width="160" relative="1" as="geometry">
                        <mxPoint x="1008.9999999999998" y="344.5" as="sourcePoint"/>
                        <mxPoint x="1099.8" y="496.5" as="targetPoint"/>
                    </mxGeometry>
                </mxCell>
                <mxCell id="59" value="&lt;font style=&quot;font-size: 12px;&quot;&gt;Extends&lt;/font&gt;" style="endArrow=block;endSize=16;endFill=0;html=1;exitX=0.5;exitY=0;exitDx=0;exitDy=0;entryX=0.981;entryY=0.018;entryDx=0;entryDy=0;entryPerimeter=0;" parent="45" source="5SEu0YeIMn6mumEOarB9-50" target="47" edge="1">
                    <mxGeometry x="-0.0244" y="-1" width="160" relative="1" as="geometry">
                        <mxPoint x="843" y="88" as="sourcePoint"/>
                        <mxPoint x="677" y="88" as="targetPoint"/>
                        <Array as="points">
                            <mxPoint x="1343" y="75"/>
                        </Array>
                        <mxPoint as="offset"/>
                    </mxGeometry>
                </mxCell>
                <mxCell id="61" value="" style="endArrow=block;dashed=1;endFill=0;endSize=12;html=1;entryX=1;entryY=0.25;entryDx=0;entryDy=0;exitX=0.534;exitY=1.162;exitDx=0;exitDy=0;exitPerimeter=0;" parent="45" source="40" target="5SEu0YeIMn6mumEOarB9-44" edge="1">
                    <mxGeometry width="160" relative="1" as="geometry">
                        <mxPoint x="870.9999999999995" y="425.0039999999999" as="sourcePoint"/>
                        <mxPoint x="871.5999999999999" y="512.03" as="targetPoint"/>
                        <Array as="points">
                            <mxPoint x="873" y="622"/>
                        </Array>
                    </mxGeometry>
                </mxCell>
                <mxCell id="62" value="" style="endArrow=block;dashed=1;endFill=0;endSize=12;html=1;entryX=1;entryY=0.75;entryDx=0;entryDy=0;exitX=0.523;exitY=1.019;exitDx=0;exitDy=0;exitPerimeter=0;" parent="45" source="5SEu0YeIMn6mumEOarB9-53" target="5SEu0YeIMn6mumEOarB9-44" edge="1">
                    <mxGeometry width="160" relative="1" as="geometry">
                        <mxPoint x="1206.9999999999995" y="401.0039999999999" as="sourcePoint"/>
                        <mxPoint x="1207.6000000000001" y="488.02999999999975" as="targetPoint"/>
                        <Array as="points">
                            <mxPoint x="1207" y="695"/>
                        </Array>
                    </mxGeometry>
                </mxCell>
                <mxCell id="63" value="&lt;font style=&quot;font-size: 12px;&quot;&gt;Extends&lt;/font&gt;" style="endArrow=block;endSize=16;endFill=0;html=1;fontSize=18;exitX=0.5;exitY=0;exitDx=0;exitDy=0;entryX=1;entryY=0.5;entryDx=0;entryDy=0;" parent="45" source="37" target="49" edge="1">
                    <mxGeometry x="-0.0295" y="-1" width="160" relative="1" as="geometry">
                        <mxPoint x="1013" y="497" as="sourcePoint"/>
                        <mxPoint x="1173" y="497" as="targetPoint"/>
                        <Array as="points">
                            <mxPoint x="1036" y="126"/>
                        </Array>
                        <mxPoint as="offset"/>
                    </mxGeometry>
                </mxCell>
            </root>
        </mxGraphModel>
    </diagram>
    <diagram id="wj9XrAyWxzP6C4VEh0LB" name="第 2 页">
        <mxGraphModel dx="586" dy="725" grid="0" gridSize="10" guides="1" tooltips="1" connect="1" arrows="1" fold="1" page="1" pageScale="1" pageWidth="1169" pageHeight="827" math="0" shadow="0">
            <root>
                <mxCell id="0"/>
                <mxCell id="1" parent="0"/>
                <mxCell id="kVn2y4w9zG1076jdzOAU-1" value="&amp;lt;&amp;lt;enumeration&amp;gt;&amp;gt;&lt;br&gt;&lt;b&gt;ReactorStatus&lt;/b&gt;" style="swimlane;fontStyle=0;align=center;verticalAlign=top;childLayout=stackLayout;horizontal=1;startSize=40;horizontalStack=0;resizeParent=1;resizeParentMax=0;resizeLast=0;collapsible=0;marginBottom=0;html=1;" parent="1" vertex="1">
                    <mxGeometry x="118" y="569" width="140" height="129" as="geometry"/>
                </mxCell>
                <mxCell id="kVn2y4w9zG1076jdzOAU-2" value="OPENING&lt;br&gt;CLOSING&lt;br&gt;INVALID&lt;br&gt;EXCEPTION&lt;br&gt;OPERATION" style="text;html=1;strokeColor=none;fillColor=none;align=left;verticalAlign=middle;spacingLeft=4;spacingRight=4;overflow=hidden;rotatable=0;points=[[0,0.5],[1,0.5]];portConstraint=eastwest;" parent="kVn2y4w9zG1076jdzOAU-1" vertex="1">
                    <mxGeometry y="40" width="140" height="89" as="geometry"/>
                </mxCell>
                <mxCell id="kVn2y4w9zG1076jdzOAU-3" value="&amp;lt;&amp;lt;enumeration&amp;gt;&amp;gt;&lt;br&gt;&lt;b&gt;ReactorType&lt;/b&gt;" style="swimlane;fontStyle=0;align=center;verticalAlign=top;childLayout=stackLayout;horizontal=1;startSize=40;horizontalStack=0;resizeParent=1;resizeParentMax=0;resizeLast=0;collapsible=0;marginBottom=0;html=1;" parent="1" vertex="1">
                    <mxGeometry x="111" y="370" width="140" height="168" as="geometry"/>
                </mxCell>
                <mxCell id="kVn2y4w9zG1076jdzOAU-4" value="UNKOWN&lt;br&gt;CUSTOM&lt;br&gt;TCP&lt;br&gt;UDP&lt;br&gt;HTTP&lt;br&gt;MQTT&lt;br&gt;COAP&lt;br&gt;WEBSOCKET" style="text;html=1;strokeColor=none;fillColor=none;align=left;verticalAlign=middle;spacingLeft=4;spacingRight=4;overflow=hidden;rotatable=0;points=[[0,0.5],[1,0.5]];portConstraint=eastwest;" parent="kVn2y4w9zG1076jdzOAU-3" vertex="1">
                    <mxGeometry y="40" width="140" height="128" as="geometry"/>
                </mxCell>
            </root>
        </mxGraphModel>
    </diagram>
</mxfile>